<?xml version="1.0" standalone="no"?>
<!DOCTYPE svg PUBLIC "-//W3C//DTD SVG 20010904//EN"
 "http://www.w3.org/TR/2001/REC-SVG-20010904/DTD/svg10.dtd">
<svg version="1.0" xmlns="http://www.w3.org/2000/svg"
 width="314.000000pt" height="314.000000pt" viewBox="0 0 314.000000 314.000000"
 preserveAspectRatio="xMidYMid meet">
<metadata>
Created by potrace 1.14, written by Peter Selinger 2001-2017
</metadata>
<g transform="translate(0.000000,314.000000) scale(0.100000,-0.100000)"
fill="#000000" stroke="none">
<path d="M107 2292 l-107 -3 192 -151 c106 -84 267 -210 358 -282 91 -71 190
-149 220 -172 30 -24 91 -72 135 -107 326 -259 926 -727 931 -727 4 0 176 136
383 302 207 167 499 402 650 523 l274 220 -225 3 -225 2 -22 103 c-12 56 -29
143 -39 192 l-18 90 -140 3 -140 3 -44 -65 -44 -64 -15 31 c-40 79 -117 98
-371 95 l-185 -3 -21 -85 -20 -85 -22 41 c-47 91 -140 138 -273 137 -119 -1
-199 -32 -274 -107 -34 -34 -68 -71 -76 -83 -14 -22 -16 -21 -147 83 l-134
106 -246 1 c-136 1 -295 1 -355 -1z m738 -146 l149 -117 18 37 c29 61 68 104
125 141 152 97 379 67 444 -59 25 -49 30 -138 11 -203 -25 -88 -98 -178 -180
-224 -17 -10 -18 -10 57 -68 14 -11 13 -12 -5 -13 -12 0 -38 14 -59 30 -39 31
-46 32 -161 15 -30 -4 -124 14 -157 31 -81 43 -111 99 -112 210 l0 81 -145
115 -145 115 -258 0 c-141 0 -257 -2 -257 -6 1 -3 179 -145 397 -316 218 -170
487 -382 599 -470 111 -88 260 -205 330 -260 70 -55 175 -137 232 -182 58 -46
110 -80 116 -76 14 9 583 465 1059 850 l78 63 -152 0 -152 0 7 -37 c3 -21 9
-55 12 -75 l7 -38 -126 0 -126 0 -8 43 c-12 61 -36 56 -132 -26 -45 -38 -89
-67 -101 -67 -24 0 -29 -6 83 90 44 38 46 50 9 50 -23 0 -32 -8 -49 -44 l-22
-44 -131 -1 c-106 -2 -130 1 -124 11 4 7 39 58 76 112 37 55 66 101 63 104 -2
2 -23 -3 -47 -13 -24 -10 -82 -20 -129 -22 l-86 -6 -12 -56 c-7 -31 -17 -73
-22 -93 l-10 -38 -119 2 c-66 1 -120 4 -120 7 0 8 119 520 126 545 6 17 18 18
202 14 212 -4 245 -11 290 -61 14 -15 26 -44 30 -73 l8 -49 62 93 63 92 118 0
118 0 39 -192 40 -193 196 -5 197 -5 -282 -227 c-155 -124 -430 -346 -612
-492 -283 -227 -332 -263 -345 -252 -8 8 -81 65 -161 127 -81 63 -270 211
-420 330 -151 119 -470 370 -709 558 -239 188 -436 345 -438 349 -1 4 134 7
301 6 l303 -1 149 -117z m1159 -343 c-20 -32 -47 -74 -60 -93 -13 -19 -24 -38
-24 -42 0 -3 44 -6 98 -6 146 0 148 0 134 -14 -8 -8 -58 -11 -157 -10 -125 1
-147 -1 -152 -14 -5 -15 -7 -15 -15 0 -7 13 -28 16 -116 15 -185 -1 -179 -2
-220 36 l-37 34 25 18 c14 10 38 31 54 48 22 23 27 26 22 10 -8 -29 -25 -109
-26 -118 0 -4 69 -6 153 -5 l152 3 24 92 24 92 66 4 c36 2 72 4 79 5 7 1 -4
-24 -24 -55z"/>
<path d="M1257 2230 c-117 -30 -204 -111 -238 -223 -52 -167 18 -274 188 -292
106 -11 216 28 285 101 38 41 78 135 85 199 10 95 -29 166 -111 200 -47 20
-158 28 -209 15z m128 -141 c57 -54 -15 -246 -94 -250 -90 -5 -117 16 -114 94
0 29 8 68 16 87 38 88 135 123 192 69z"/>
<path d="M1280 2077 c-58 -30 -97 -144 -65 -193 30 -46 113 -18 139 47 29 71
31 114 7 138 -24 24 -45 26 -81 8z m63 -65 c-3 -74 -54 -135 -97 -119 -19 7
-20 28 -5 81 14 50 51 87 81 82 20 -3 23 -9 21 -44z"/>
<path d="M1680 2053 c-23 -98 -50 -211 -59 -250 -10 -40 -15 -75 -13 -78 3 -3
45 -5 93 -5 l88 0 10 38 c5 20 15 62 22 93 l12 57 101 4 c111 4 158 21 208 75
79 83 59 202 -39 231 -21 6 -115 11 -209 12 l-172 1 -42 -178z m314 51 c21
-21 20 -28 -6 -58 -17 -18 -36 -26 -71 -30 -26 -2 -49 -1 -51 3 -3 4 0 28 6
54 l10 47 48 0 c31 0 54 -6 64 -16z"/>
<path d="M1900 2064 c0 -24 3 -25 27 -19 62 15 70 45 13 45 -36 0 -40 -2 -40
-26z"/>
<path d="M2197 1982 c-92 -137 -167 -252 -167 -255 0 -4 42 -7 93 -7 l94 0 18
40 c10 22 25 41 34 41 49 4 178 5 189 1 7 -2 12 -21 12 -43 l0 -39 101 0 c77
0 100 3 97 13 -3 6 -27 121 -54 254 l-49 243 -101 0 -100 0 -167 -248z m244
17 c5 -40 6 -76 1 -79 -4 -3 -30 -3 -59 0 l-51 5 46 77 c25 42 48 75 50 73 2
-2 8 -36 13 -76z"/>
<path d="M2390 1970 c-9 -17 -8 -20 10 -20 13 0 20 7 20 20 0 11 -4 20 -10 20
-5 0 -14 -9 -20 -20z"/>
</g>
</svg>
